<svg xmlns="http://www.w3.org/2000/svg" viewBox="0 0 64 64" fill="none">
  <!-- Option 2: Hexagonal network node style -->
  <defs>
    <linearGradient id="grad2" x1="0%" y1="0%" x2="100%" y2="100%">
      <stop offset="0%" style="stop-color:#a78bfa"/>
      <stop offset="100%" style="stop-color:#7c3aed"/>
    </linearGradient>
  </defs>
  
  <!-- Outer hexagon -->
  <polygon points="32,6 54,18 54,42 32,54 10,42 10,18" fill="none" stroke="url(#grad2)" stroke-width="2.5"/>
  
  <!-- Inner connections -->
  <line x1="32" y1="6" x2="32" y2="30" stroke="url(#grad2)" stroke-width="1.5" opacity="0.6"/>
  <line x1="54" y1="18" x2="32" y2="30" stroke="url(#grad2)" stroke-width="1.5" opacity="0.6"/>
  <line x1="54" y1="42" x2="32" y2="30" stroke="url(#grad2)" stroke-width="1.5" opacity="0.6"/>
  <line x1="32" y1="54" x2="32" y2="30" stroke="url(#grad2)" stroke-width="1.5" opacity="0.6"/>
  <line x1="10" y1="42" x2="32" y2="30" stroke="url(#grad2)" stroke-width="1.5" opacity="0.6"/>
  <line x1="10" y1="18" x2="32" y2="30" stroke="url(#grad2)" stroke-width="1.5" opacity="0.6"/>
  
  <!-- Corner nodes -->
  <circle cx="32" cy="6" r="4" fill="none" stroke="url(#grad2)" stroke-width="2"/>
  <circle cx="54" cy="18" r="4" fill="none" stroke="url(#grad2)" stroke-width="2"/>
  <circle cx="54" cy="42" r="4" fill="none" stroke="url(#grad2)" stroke-width="2"/>
  <circle cx="32" cy="54" r="4" fill="none" stroke="url(#grad2)" stroke-width="2"/>
  <circle cx="10" cy="42" r="4" fill="none" stroke="url(#grad2)" stroke-width="2"/>
  <circle cx="10" cy="18" r="4" fill="none" stroke="url(#grad2)" stroke-width="2"/>
  
  <!-- Center node -->
  <circle cx="32" cy="30" r="6" fill="none" stroke="url(#grad2)" stroke-width="2.5"/>
  <circle cx="32" cy="30" r="2.5" fill="url(#grad2)"/>
</svg>
